<?xml version="1.0" encoding="UTF-8" standalone="no"?>
<!DOCTYPE svg PUBLIC "-//W3C//DTD SVG 1.1//EN"
 "http://www.w3.org/Graphics/SVG/1.1/DTD/svg11.dtd">
<!-- Generated by graphviz version 14.1.2 (20260124.0452)
 -->
<!-- Title: Context Pages: 1 -->
<svg width="808pt" height="493pt"
 viewBox="0.00 0.00 808.00 493.00" xmlns="http://www.w3.org/2000/svg" xmlns:xlink="http://www.w3.org/1999/xlink">
<g id="graph0" class="graph" transform="scale(1 1) rotate(0) translate(21.6 471.52)">
<title>Context</title>
<polygon fill="white" stroke="none" points="-21.6,21.6 -21.6,-471.52 786.48,-471.52 786.48,21.6 -21.6,21.6"/>
<!-- soi -->
<g id="node1" class="node">
<title>soi</title>
<ellipse fill="#cfe6ff" stroke="#2b4c66" stroke-width="1.5" cx="389.75" cy="-227.4" rx="129.6" ry="64.8"/>
<text xml:space="preserve" text-anchor="middle" x="389.75" y="-229.85" font-family="Arial" font-size="14.00">Сервис управления</text>
<text xml:space="preserve" text-anchor="middle" x="389.75" y="-214.1" font-family="Arial" font-size="14.00">доступом к API</text>
</g>
<!-- dev -->
<g id="node2" class="node">
<title>dev</title>
<path fill="#dfefff" stroke="#2b4c66" stroke-width="1.5" d="M85.75,-357.4C85.75,-357.4 12,-357.4 12,-357.4 6,-357.4 0,-351.4 0,-345.4 0,-345.4 0,-333.4 0,-333.4 0,-327.4 6,-321.4 12,-321.4 12,-321.4 85.75,-321.4 85.75,-321.4 91.75,-321.4 97.75,-327.4 97.75,-333.4 97.75,-333.4 97.75,-345.4 97.75,-345.4 97.75,-351.4 91.75,-357.4 85.75,-357.4"/>
<text xml:space="preserve" text-anchor="middle" x="48.88" y="-333.97" font-family="Arial" font-size="14.00">Разработчик</text>
</g>
<!-- soi&#45;&gt;dev -->
<g id="edge2" class="edge">
<title>soi&#45;&gt;dev</title>
<path fill="none" stroke="#1f1f1f" stroke-width="1.2" d="M268.71,-251.36C203.5,-270.89 127.76,-297.39 84.33,-316.76"/>
<polygon fill="#1f1f1f" stroke="#1f1f1f" stroke-width="1.2" points="83.32,-314.14 77.22,-320.02 85.66,-319.23 83.32,-314.14"/>
<text xml:space="preserve" text-anchor="middle" x="132.31" y="-287.18" font-family="Arial" font-size="11.00">Статус заявки</text>
</g>
<!-- devops -->
<g id="node3" class="node">
<title>devops</title>
<path fill="#dfefff" stroke="#2b4c66" stroke-width="1.5" d="M69.62,-221.05C69.62,-221.05 28.12,-221.05 28.12,-221.05 22.13,-221.05 16.12,-215.05 16.12,-209.05 16.12,-209.05 16.12,-197.05 16.12,-197.05 16.12,-191.05 22.12,-185.05 28.12,-185.05 28.12,-185.05 69.62,-185.05 69.62,-185.05 75.62,-185.05 81.62,-191.05 81.62,-197.05 81.62,-197.05 81.62,-209.05 81.62,-209.05 81.62,-215.05 75.62,-221.05 69.62,-221.05"/>
<text xml:space="preserve" text-anchor="middle" x="48.88" y="-197.62" font-family="Arial" font-size="14.00">DevOps</text>
</g>
<!-- soi&#45;&gt;devops -->
<g id="edge4" class="edge">
<title>soi&#45;&gt;devops</title>
<path fill="none" stroke="#1f1f1f" stroke-width="1.2" d="M268.73,-203.54C207.03,-197.62 135.88,-194 91.63,-195.29"/>
<polygon fill="#1f1f1f" stroke="#1f1f1f" stroke-width="1.2" points="91.76,-192.48 83.88,-195.59 91.98,-198.08 91.76,-192.48"/>
<text xml:space="preserve" text-anchor="middle" x="197.17" y="-186.26" font-family="Arial" font-size="11.00">Статусы операций</text>
</g>
<!-- cicd -->
<g id="node4" class="node">
<title>cicd</title>
<path fill="#dfefff" stroke="#2b4c66" stroke-width="1.5" d="M83.35,-89.57C83.35,-89.57 53.35,-89.57 53.35,-89.57 47.35,-89.57 41.35,-83.57 41.35,-77.57 41.35,-77.57 41.35,-65.57 41.35,-65.57 41.35,-59.57 47.35,-53.57 53.35,-53.57 53.35,-53.57 83.35,-53.57 83.35,-53.57 89.35,-53.57 95.35,-59.57 95.35,-65.57 95.35,-65.57 95.35,-77.57 95.35,-77.57 95.35,-83.57 89.35,-89.57 83.35,-89.57"/>
<text xml:space="preserve" text-anchor="middle" x="68.35" y="-66.14" font-family="Arial" font-size="14.00">CI/CD</text>
</g>
<!-- soi&#45;&gt;cicd -->
<g id="edge6" class="edge">
<title>soi&#45;&gt;cicd</title>
<path fill="none" stroke="#1f1f1f" stroke-width="1.2" d="M313.08,-174.69C247.43,-139.17 155.84,-96.24 105.31,-78.4"/>
<polygon fill="#1f1f1f" stroke="#1f1f1f" stroke-width="1.2" points="106.27,-75.76 97.79,-75.85 104.47,-81.07 106.27,-75.76"/>
<text xml:space="preserve" text-anchor="middle" x="130.72" y="-122.94" font-family="Arial" font-size="11.00">Сервисные учетные данные</text>
</g>
<!-- sso -->
<g id="node5" class="node">
<title>sso</title>
<path fill="#dfefff" stroke="#2b4c66" stroke-width="1.5" d="M347.95,-449.92C347.95,-449.92 295.2,-449.92 295.2,-449.92 289.2,-449.92 283.2,-443.92 283.2,-437.92 283.2,-437.92 283.2,-425.92 283.2,-425.92 283.2,-419.92 289.2,-413.92 295.2,-413.92 295.2,-413.92 347.95,-413.92 347.95,-413.92 353.95,-413.92 359.95,-419.92 359.95,-425.92 359.95,-425.92 359.95,-437.92 359.95,-437.92 359.95,-443.92 353.95,-449.92 347.95,-449.92"/>
<text xml:space="preserve" text-anchor="middle" x="321.58" y="-426.5" font-family="Arial" font-size="14.00">IdP / SSO</text>
</g>
<!-- soi&#45;&gt;sso -->
<g id="edge8" class="edge">
<title>soi&#45;&gt;sso</title>
<path fill="none" stroke="#1f1f1f" stroke-width="1.2" d="M353.09,-290.22C338.43,-328.12 324.43,-374.53 319.68,-403.71"/>
<polygon fill="#1f1f1f" stroke="#1f1f1f" stroke-width="1.2" points="316.93,-403.17 318.64,-411.47 322.48,-403.91 316.93,-403.17"/>
<text xml:space="preserve" text-anchor="middle" x="289.41" y="-353.75" font-family="Arial" font-size="11.00">Проверка сессии</text>
</g>
<!-- mail -->
<g id="node6" class="node">
<title>mail</title>
<path fill="#dfefff" stroke="#2b4c66" stroke-width="1.5" d="M188.38,-441.93C188.38,-441.93 133.38,-441.93 133.38,-441.93 127.38,-441.93 121.38,-435.93 121.38,-429.93 121.38,-429.93 121.38,-414.43 121.38,-414.43 121.38,-408.43 127.38,-402.43 133.38,-402.43 133.38,-402.43 188.38,-402.43 188.38,-402.43 194.38,-402.43 200.38,-408.43 200.38,-414.43 200.38,-414.43 200.38,-429.93 200.38,-429.93 200.38,-435.93 194.38,-441.93 188.38,-441.93"/>
<text xml:space="preserve" text-anchor="middle" x="160.88" y="-424.63" font-family="Arial" font-size="14.00">Почтовый</text>
<text xml:space="preserve" text-anchor="middle" x="160.88" y="-408.88" font-family="Arial" font-size="14.00">сервис</text>
</g>
<!-- soi&#45;&gt;mail -->
<g id="edge10" class="edge">
<title>soi&#45;&gt;mail</title>
<path fill="none" stroke="#1f1f1f" stroke-width="1.2" d="M307.44,-278.04C260.39,-315.17 205.56,-363.91 178.01,-394.4"/>
<polygon fill="#1f1f1f" stroke="#1f1f1f" stroke-width="1.2" points="175.96,-392.5 172.81,-400.37 180.18,-396.18 175.96,-392.5"/>
<text xml:space="preserve" text-anchor="middle" x="200.85" y="-341.82" font-family="Arial" font-size="11.00">Уведомления</text>
</g>
<!-- bi -->
<g id="node7" class="node">
<title>bi</title>
<path fill="#dfefff" stroke="#2b4c66" stroke-width="1.5" d="M587.71,-449.92C587.71,-449.92 503.46,-449.92 503.46,-449.92 497.46,-449.92 491.46,-443.92 491.46,-437.92 491.46,-437.92 491.46,-425.92 491.46,-425.92 491.46,-419.92 497.46,-413.92 503.46,-413.92 503.46,-413.92 587.71,-413.92 587.71,-413.92 593.71,-413.92 599.71,-419.92 599.71,-425.92 599.71,-425.92 599.71,-437.92 599.71,-437.92 599.71,-443.92 593.71,-449.92 587.71,-449.92"/>
<text xml:space="preserve" text-anchor="middle" x="545.58" y="-426.5" font-family="Arial" font-size="14.00">BI / Аналитика</text>
</g>
<!-- soi&#45;&gt;bi -->
<g id="edge12" class="edge">
<title>soi&#45;&gt;bi</title>
<path fill="none" stroke="#1f1f1f" stroke-width="1.2" d="M420.46,-291.05C446.72,-330 483.91,-377.58 511.18,-406.43"/>
<polygon fill="#1f1f1f" stroke="#1f1f1f" stroke-width="1.2" points="509.04,-408.25 516.62,-412.04 513.06,-404.35 509.04,-408.25"/>
<text xml:space="preserve" text-anchor="middle" x="405.07" y="-343.51" font-family="Arial" font-size="11.00">Агрегированные отчеты</text>
</g>
<!-- partner -->
<g id="node8" class="node">
<title>partner</title>
<path fill="#dfefff" stroke="#2b4c66" stroke-width="1.5" d="M746.9,-446.8C746.9,-446.8 685.15,-446.8 685.15,-446.8 679.15,-446.8 673.15,-440.8 673.15,-434.8 673.15,-434.8 673.15,-419.3 673.15,-419.3 673.15,-413.3 679.15,-407.3 685.15,-407.3 685.15,-407.3 746.9,-407.3 746.9,-407.3 752.9,-407.3 758.9,-413.3 758.9,-419.3 758.9,-419.3 758.9,-434.8 758.9,-434.8 758.9,-440.8 752.9,-446.8 746.9,-446.8"/>
<text xml:space="preserve" text-anchor="middle" x="716.02" y="-429.5" font-family="Arial" font-size="14.00">Партнер&#45;</text>
<text xml:space="preserve" text-anchor="middle" x="716.02" y="-413.75" font-family="Arial" font-size="14.00">интегратор</text>
</g>
<!-- soi&#45;&gt;partner -->
<g id="edge14" class="edge">
<title>soi&#45;&gt;partner</title>
<path fill="none" stroke="#1f1f1f" stroke-width="1.2" d="M455.98,-283.63C517.36,-325.53 607.29,-379.78 663.77,-408.44"/>
<polygon fill="#1f1f1f" stroke="#1f1f1f" stroke-width="1.2" points="662.51,-410.94 670.92,-412 665.01,-405.92 662.51,-410.94"/>
<text xml:space="preserve" text-anchor="middle" x="562.15" y="-340.81" font-family="Arial" font-size="11.00">Ограниченные токены</text>
</g>
<!-- sec -->
<g id="node9" class="node">
<title>sec</title>
<path fill="#dfefff" stroke="#2b4c66" stroke-width="1.5" d="M728.55,-367.14C728.55,-367.14 654.8,-367.14 654.8,-367.14 648.8,-367.14 642.8,-361.14 642.8,-355.14 642.8,-355.14 642.8,-343.14 642.8,-343.14 642.8,-337.14 648.8,-331.14 654.8,-331.14 654.8,-331.14 728.55,-331.14 728.55,-331.14 734.55,-331.14 740.55,-337.14 740.55,-343.14 740.55,-343.14 740.55,-355.14 740.55,-355.14 740.55,-361.14 734.55,-367.14 728.55,-367.14"/>
<text xml:space="preserve" text-anchor="middle" x="691.67" y="-343.71" font-family="Arial" font-size="14.00">ИБ&#45;аналитик</text>
</g>
<!-- soi&#45;&gt;sec -->
<g id="edge16" class="edge">
<title>soi&#45;&gt;sec</title>
<path fill="none" stroke="#1f1f1f" stroke-width="1.2" d="M474.08,-277.08C524.72,-299.81 587.84,-324.5 633.07,-338.88"/>
<polygon fill="#1f1f1f" stroke="#1f1f1f" stroke-width="1.2" points="632.23,-341.55 640.7,-341.25 633.89,-336.2 632.23,-341.55"/>
<text xml:space="preserve" text-anchor="middle" x="508.81" y="-314.92" font-family="Arial" font-size="11.00">Алерты и журналы</text>
</g>
<!-- auditor -->
<g id="node10" class="node">
<title>auditor</title>
<path fill="#dfefff" stroke="#2b4c66" stroke-width="1.5" d="M752.88,-245.4C752.88,-245.4 708.38,-245.4 708.38,-245.4 702.38,-245.4 696.38,-239.4 696.38,-233.4 696.38,-233.4 696.38,-221.4 696.38,-221.4 696.38,-215.4 702.38,-209.4 708.38,-209.4 708.38,-209.4 752.88,-209.4 752.88,-209.4 758.88,-209.4 764.88,-215.4 764.88,-221.4 764.88,-221.4 764.88,-233.4 764.88,-233.4 764.88,-239.4 758.88,-245.4 752.88,-245.4"/>
<text xml:space="preserve" text-anchor="middle" x="730.63" y="-221.97" font-family="Arial" font-size="14.00">Аудитор</text>
</g>
<!-- soi&#45;&gt;auditor -->
<g id="edge18" class="edge">
<title>soi&#45;&gt;auditor</title>
<path fill="none" stroke="#1f1f1f" stroke-width="1.2" d="M516.2,-242.67C575.79,-243.99 643.08,-242.57 686.13,-238.43"/>
<polygon fill="#1f1f1f" stroke="#1f1f1f" stroke-width="1.2" points="686.26,-241.23 693.92,-237.6 685.67,-235.66 686.26,-241.23"/>
<text xml:space="preserve" text-anchor="middle" x="565.08" y="-245.65" font-family="Arial" font-size="11.00">Evidence&#45;отчеты</text>
</g>
<!-- admin -->
<g id="node11" class="node">
<title>admin</title>
<path fill="#dfefff" stroke="#2b4c66" stroke-width="1.5" d="M732.3,-110.8C732.3,-110.8 641.3,-110.8 641.3,-110.8 635.3,-110.8 629.3,-104.8 629.3,-98.8 629.3,-98.8 629.3,-83.3 629.3,-83.3 629.3,-77.3 635.3,-71.3 641.3,-71.3 641.3,-71.3 732.3,-71.3 732.3,-71.3 738.3,-71.3 744.3,-77.3 744.3,-83.3 744.3,-83.3 744.3,-98.8 744.3,-98.8 744.3,-104.8 738.3,-110.8 732.3,-110.8"/>
<text xml:space="preserve" text-anchor="middle" x="686.8" y="-93.5" font-family="Arial" font-size="14.00">Администратор</text>
<text xml:space="preserve" text-anchor="middle" x="686.8" y="-77.75" font-family="Arial" font-size="14.00">платформы</text>
</g>
<!-- soi&#45;&gt;admin -->
<g id="edge20" class="edge">
<title>soi&#45;&gt;admin</title>
<path fill="none" stroke="#1f1f1f" stroke-width="1.2" d="M500.79,-193.07C556.67,-169.2 620.11,-138.4 656.65,-116.49"/>
<polygon fill="#1f1f1f" stroke="#1f1f1f" stroke-width="1.2" points="658.01,-118.94 663.35,-112.35 655.07,-114.17 658.01,-118.94"/>
<text xml:space="preserve" text-anchor="middle" x="542.18" y="-143.56" font-family="Arial" font-size="11.00">Ошибки и конфиг</text>
</g>
<!-- gw -->
<g id="node12" class="node">
<title>gw</title>
<path fill="#dfefff" stroke="#2b4c66" stroke-width="1.5" d="M483.94,-40.87C483.94,-40.87 412.44,-40.87 412.44,-40.87 406.44,-40.87 400.44,-34.87 400.44,-28.87 400.44,-28.87 400.44,-16.87 400.44,-16.87 400.44,-10.87 406.44,-4.87 412.44,-4.87 412.44,-4.87 483.94,-4.87 483.94,-4.87 489.94,-4.87 495.94,-10.87 495.94,-16.87 495.94,-16.87 495.94,-28.87 495.94,-28.87 495.94,-34.87 489.94,-40.87 483.94,-40.87"/>
<text xml:space="preserve" text-anchor="middle" x="448.19" y="-17.44" font-family="Arial" font-size="14.00">API Gateway</text>
</g>
<!-- soi&#45;&gt;gw -->
<g id="edge22" class="edge">
<title>soi&#45;&gt;gw</title>
<path fill="none" stroke="#1f1f1f" stroke-width="1.2" d="M423.29,-164.24C436.17,-126.24 448,-79.78 451.4,-50.71"/>
<polygon fill="#1f1f1f" stroke="#1f1f1f" stroke-width="1.2" points="454.16,-51.23 452.08,-43.01 448.59,-50.73 454.16,-51.23"/>
<text xml:space="preserve" text-anchor="middle" x="394.52" y="-106.7" font-family="Arial" font-size="11.00">Политики и revoke</text>
</g>
<!-- vault -->
<g id="node13" class="node">
<title>vault</title>
<path fill="#dfefff" stroke="#2b4c66" stroke-width="1.5" d="M318.37,-36C318.37,-36 246.87,-36 246.87,-36 240.87,-36 234.87,-30 234.87,-24 234.87,-24 234.87,-12 234.87,-12 234.87,-6 240.87,0 246.87,0 246.87,0 318.37,0 318.37,0 324.37,0 330.37,-6 330.37,-12 330.37,-12 330.37,-24 330.37,-24 330.37,-30 324.37,-36 318.37,-36"/>
<text xml:space="preserve" text-anchor="middle" x="282.62" y="-12.57" font-family="Arial" font-size="14.00">Secrets Vault</text>
</g>
<!-- soi&#45;&gt;vault -->
<g id="edge24" class="edge">
<title>soi&#45;&gt;vault</title>
<path fill="none" stroke="#1f1f1f" stroke-width="1.2" d="M372.63,-162.56C355.14,-122.66 329.13,-73.74 309.1,-44.18"/>
<polygon fill="#1f1f1f" stroke="#1f1f1f" stroke-width="1.2" points="311.55,-42.8 304.66,-37.87 306.97,-46.02 311.55,-42.8"/>
<text xml:space="preserve" text-anchor="middle" x="277.28" y="-87.57" font-family="Arial" font-size="11.00">Хранение/ротация/отзыв</text>
</g>
<!-- siem -->
<g id="node14" class="node">
<title>siem</title>
<path fill="#dfefff" stroke="#2b4c66" stroke-width="1.5" d="M621.42,-47.49C621.42,-47.49 547.67,-47.49 547.67,-47.49 541.67,-47.49 535.67,-41.49 535.67,-35.49 535.67,-35.49 535.67,-19.99 535.67,-19.99 535.67,-13.99 541.67,-7.99 547.67,-7.99 547.67,-7.99 621.42,-7.99 621.42,-7.99 627.42,-7.99 633.42,-13.99 633.42,-19.99 633.42,-19.99 633.42,-35.49 633.42,-35.49 633.42,-41.49 627.42,-47.49 621.42,-47.49"/>
<text xml:space="preserve" text-anchor="middle" x="584.54" y="-30.19" font-family="Arial" font-size="14.00">SIEM /</text>
<text xml:space="preserve" text-anchor="middle" x="584.54" y="-14.44" font-family="Arial" font-size="14.00">Логирование</text>
</g>
<!-- soi&#45;&gt;siem -->
<g id="edge26" class="edge">
<title>soi&#45;&gt;siem</title>
<path fill="none" stroke="#1f1f1f" stroke-width="1.2" d="M463.07,-173.48C503.19,-135.42 549.01,-86.19 571.47,-55.58"/>
<polygon fill="#1f1f1f" stroke="#1f1f1f" stroke-width="1.2" points="573.56,-57.48 575.87,-49.33 568.98,-54.26 573.56,-57.48"/>
<text xml:space="preserve" text-anchor="middle" x="582.83" y="-114.72" font-family="Arial" font-size="11.00">События безопасности</text>
</g>
<!-- dev&#45;&gt;soi -->
<g id="edge1" class="edge">
<title>dev&#45;&gt;soi</title>
<path fill="none" stroke="#1f1f1f" stroke-width="1.2" d="M98.14,-335.5C147.69,-324.21 225.47,-299.97 288.26,-276.97"/>
<polygon fill="#1f1f1f" stroke="#1f1f1f" stroke-width="1.2" points="289.17,-279.62 295.71,-274.22 287.23,-274.36 289.17,-279.62"/>
<text xml:space="preserve" text-anchor="middle" x="154.23" y="-310.48" font-family="Arial" font-size="11.00">Заявка на доступ</text>
</g>
<!-- devops&#45;&gt;soi -->
<g id="edge3" class="edge">
<title>devops&#45;&gt;soi</title>
<path fill="none" stroke="#1f1f1f" stroke-width="1.2" d="M82.07,-215.82C121.28,-223.58 189.02,-230.38 250.98,-233.75"/>
<polygon fill="#1f1f1f" stroke="#1f1f1f" stroke-width="1.2" points="250.53,-236.53 258.66,-234.15 250.82,-230.94 250.53,-236.53"/>
<text xml:space="preserve" text-anchor="middle" x="118.47" y="-230.82" font-family="Arial" font-size="11.00">Запросы на ротацию</text>
</g>
<!-- cicd&#45;&gt;soi -->
<g id="edge5" class="edge">
<title>cicd&#45;&gt;soi</title>
<path fill="none" stroke="#1f1f1f" stroke-width="1.2" d="M86.57,-90.27C122.09,-114.87 202.65,-156.49 271.83,-187.76"/>
<polygon fill="#1f1f1f" stroke="#1f1f1f" stroke-width="1.2" points="270.54,-190.25 278.99,-190.97 272.83,-185.14 270.54,-190.25"/>
<text xml:space="preserve" text-anchor="middle" x="146.38" y="-147.35" font-family="Arial" font-size="11.00">M2M&#45;запросы</text>
</g>
<!-- sso&#45;&gt;soi -->
<g id="edge7" class="edge">
<title>sso&#45;&gt;soi</title>
<path fill="none" stroke="#1f1f1f" stroke-width="1.2" d="M339.01,-413.41C352.99,-388.22 370.2,-341.9 381.53,-301.76"/>
<polygon fill="#1f1f1f" stroke="#1f1f1f" stroke-width="1.2" points="384.18,-302.71 383.59,-294.26 378.77,-301.23 384.18,-302.71"/>
<text xml:space="preserve" text-anchor="middle" x="415.94" y="-357.34" font-family="Arial" font-size="11.00">Утверждения и MFA</text>
</g>
<!-- mail&#45;&gt;soi -->
<g id="edge9" class="edge">
<title>mail&#45;&gt;soi</title>
<path fill="none" stroke="#1f1f1f" stroke-width="1.2" d="M200.9,-403.76C237.89,-378.54 292.79,-333.2 333.99,-294.66"/>
<polygon fill="#1f1f1f" stroke="#1f1f1f" stroke-width="1.2" points="335.78,-296.82 339.67,-289.29 331.93,-292.75 335.78,-296.82"/>
<text xml:space="preserve" text-anchor="middle" x="294.04" y="-337.82" font-family="Arial" font-size="11.00">Статус доставки</text>
</g>
<!-- bi&#45;&gt;soi -->
<g id="edge11" class="edge">
<title>bi&#45;&gt;soi</title>
<path fill="none" stroke="#1f1f1f" stroke-width="1.2" d="M542.28,-413.23C529.59,-385.67 493.11,-333.82 458.83,-291.78"/>
<polygon fill="#1f1f1f" stroke="#1f1f1f" stroke-width="1.2" points="461.09,-290.11 453.84,-285.72 456.76,-293.67 461.09,-290.11"/>
<text xml:space="preserve" text-anchor="middle" x="484.38" y="-336.17" font-family="Arial" font-size="11.00">Запросы KPI</text>
</g>
<!-- partner&#45;&gt;soi -->
<g id="edge13" class="edge">
<title>partner&#45;&gt;soi</title>
<path fill="none" stroke="#1f1f1f" stroke-width="1.2" d="M699.61,-406.91C662.53,-375.65 570.75,-316.88 496.58,-274.83"/>
<polygon fill="#1f1f1f" stroke="#1f1f1f" stroke-width="1.2" points="498.02,-272.42 489.68,-270.94 495.27,-277.3 498.02,-272.42"/>
<text xml:space="preserve" text-anchor="middle" x="596.21" y="-324.34" font-family="Arial" font-size="11.00">Партнерская заявка</text>
</g>
<!-- sec&#45;&gt;soi -->
<g id="edge15" class="edge">
<title>sec&#45;&gt;soi</title>
<path fill="none" stroke="#1f1f1f" stroke-width="1.2" d="M671.02,-330.59C638.74,-311.44 574.17,-282.99 515.01,-260.47"/>
<polygon fill="#1f1f1f" stroke="#1f1f1f" stroke-width="1.2" points="516.12,-257.89 507.64,-257.69 514.14,-263.13 516.12,-257.89"/>
<text xml:space="preserve" text-anchor="middle" x="656.73" y="-293.9" font-family="Arial" font-size="11.00">Согласование/отклонение</text>
</g>
<!-- auditor&#45;&gt;soi -->
<g id="edge17" class="edge">
<title>auditor&#45;&gt;soi</title>
<path fill="none" stroke="#1f1f1f" stroke-width="1.2" d="M695.75,-216.91C655.65,-211.99 587.35,-210.09 525.45,-211.2"/>
<polygon fill="#1f1f1f" stroke="#1f1f1f" stroke-width="1.2" points="525.73,-208.4 517.79,-211.36 525.84,-214 525.73,-208.4"/>
<text xml:space="preserve" text-anchor="middle" x="568.92" y="-214.49" font-family="Arial" font-size="11.00">Запрос аудита</text>
</g>
<!-- admin&#45;&gt;soi -->
<g id="edge19" class="edge">
<title>admin&#45;&gt;soi</title>
<path fill="none" stroke="#1f1f1f" stroke-width="1.2" d="M628.63,-103.48C585.27,-119.37 525.42,-145.93 476.45,-170.62"/>
<polygon fill="#1f1f1f" stroke="#1f1f1f" stroke-width="1.2" points="475.23,-168.09 469.37,-174.22 477.77,-173.09 475.23,-168.09"/>
<text xml:space="preserve" text-anchor="middle" x="495.05" y="-126.62" font-family="Arial" font-size="11.00">Настройки и override</text>
</g>
<!-- gw&#45;&gt;soi -->
<g id="edge21" class="edge">
<title>gw&#45;&gt;soi</title>
<path fill="none" stroke="#1f1f1f" stroke-width="1.2" d="M431.85,-41.46C419.14,-66.58 404.18,-112.69 394.69,-152.72"/>
<polygon fill="#1f1f1f" stroke="#1f1f1f" stroke-width="1.2" points="391.98,-152.02 392.93,-160.45 397.44,-153.27 391.98,-152.02"/>
<text xml:space="preserve" text-anchor="middle" x="474.29" y="-90.39" font-family="Arial" font-size="11.00">Проверка токена/доступа</text>
</g>
<!-- vault&#45;&gt;soi -->
<g id="edge23" class="edge">
<title>vault&#45;&gt;soi</title>
<path fill="none" stroke="#1f1f1f" stroke-width="1.2" d="M282.08,-36.44C288.76,-63.62 312.57,-115.34 336.4,-158.15"/>
<polygon fill="#1f1f1f" stroke="#1f1f1f" stroke-width="1.2" points="333.9,-159.42 340.27,-165.01 338.78,-156.66 333.9,-159.42"/>
<text xml:space="preserve" text-anchor="middle" x="262.52" y="-106.34" font-family="Arial" font-size="11.00">Статусы секретов</text>
</g>
<!-- siem&#45;&gt;soi -->
<g id="edge25" class="edge">
<title>siem&#45;&gt;soi</title>
<path fill="none" stroke="#1f1f1f" stroke-width="1.2" d="M548.06,-47.98C516.21,-73.97 470.34,-119.46 436.01,-158.26"/>
<polygon fill="#1f1f1f" stroke="#1f1f1f" stroke-width="1.2" points="434.1,-156.19 430.93,-164.05 438.31,-159.87 434.1,-156.19"/>
<text xml:space="preserve" text-anchor="middle" x="529.32" y="-107.35" font-family="Arial" font-size="11.00">Теги инцидентов</text>
</g>
</g>
</svg>
